####
#
# OBJ File Generated by Meshlab
#
####
# Object index1.obj
#
# Vertices: 46
# Faces: 88
#
####
vn -0.443349 -3.221915 0.065922
v 0.156440 -8.887430 0.401260
vn -0.598704 -2.462296 1.802365
v -1.150730 -7.190800 5.686520
vn -0.635317 0.698028 2.732836
v -3.690330 2.104450 8.926210
vn -0.765253 2.370506 1.849661
v -3.668590 6.522560 6.026830
vn -0.302053 -1.563300 0.289574
v 37.591499 -9.969760 6.906150
vn -0.618423 2.905891 0.383017
v -3.421650 8.628610 0.309330
vn -0.435413 0.671740 3.008232
v 34.992100 4.997390 15.474900
vn -0.282274 -0.377148 1.819378
v 36.541500 -2.749210 15.748600
vn -0.730072 -3.305398 -0.114835
v 34.098701 -9.693980 0.938480
vn -1.374069 4.757962 3.324719
v 1.066250 7.734580 6.399460
vn -1.295144 1.786196 5.544006
v 1.154080 3.171570 9.779850
vn -0.985648 1.616138 5.656869
v 18.989000 4.597620 13.049100
vn -1.058213 4.561784 3.711265
v 17.889200 9.976940 9.252830
vn 0.656302 -2.757669 -3.066230
v 24.886101 -3.958390 -4.363410
vn -1.849128 -5.702264 -1.378200
v 27.863199 -8.051730 0.082980
vn -0.133097 -5.605496 -2.535476
v 24.406000 -6.616890 -1.005300
vn 1.470103 -2.632336 -4.668967
v 21.391800 -3.991460 -6.028800
vn -0.637639 -1.641273 -0.477029
v 32.741001 -8.504530 -4.879210
vn -0.450025 -1.054843 2.834263
v -2.466850 -3.085470 8.825910
vn 0.648555 -2.063094 -5.434546
v 5.924750 -3.573140 -9.035150
vn 0.308337 -5.005192 -3.036452
v 5.563100 -7.952790 -5.383380
vn -0.040293 -2.609175 -1.596359
v 0.688300 -7.617430 -5.768870
vn 0.220368 -1.005695 -2.878497
v 0.702180 -3.283470 -9.501790
vn -1.259312 -5.993094 0.906311
v 28.991400 -8.508880 5.822180
vn -0.965583 -3.397411 2.875175
v 30.059401 -6.530340 11.954700
vn -0.662921 -4.970081 3.226370
v 22.783600 -6.299400 9.713560
vn -0.398149 -6.201941 0.138627
v 23.397800 -7.262200 3.949630
vn -1.212481 -1.324594 5.653620
v 27.650499 -0.974790 14.737000
vn -0.881279 -1.871853 5.639277
v 21.042500 -1.363570 13.179600
vn 0.606018 1.611839 -5.729967
v 5.201320 3.014110 -9.217100
vn -0.274345 4.863397 -2.869630
v 3.519270 9.296280 -5.114410
vn 0.073052 4.154967 -3.811327
v 18.681101 10.433000 -3.838220
vn 1.197474 1.059209 -5.888605
v 18.244400 2.951280 -7.062350
vn -0.033233 1.607064 -1.523069
v 29.063000 11.293100 -3.157220
vn -1.131200 -1.602779 5.689055
v 2.322890 -2.160760 10.027200
vn -0.156109 -5.864858 0.139212
v 5.147490 -9.648340 1.143820
vn -0.819016 -4.464567 3.462993
v 3.763880 -7.661730 7.087960
vn -1.154761 5.955950 0.360123
v 1.710150 9.794140 0.301640
vn -0.212468 2.430863 -1.400501
v -2.130770 8.250280 -6.072800
vn 0.253775 0.934499 -2.913147
v -0.159280 2.735330 -9.809240
vn -1.124283 1.896262 5.682360
v 26.645399 5.364550 13.983600
vn -0.463548 1.402779 1.683883
v 34.259102 12.110300 11.880400
vn -1.253455 4.596363 3.803813
v 26.013800 10.957800 10.017500
vn -0.911058 5.847350 0.245904
v 19.401400 12.677400 3.122720
vn 0.741682 0.461533 -3.482998
v 24.866400 2.465470 -5.569990
vn -0.614101 3.603080 0.444703
v 27.366800 13.978600 4.204740
# 46 vertices, 0 vertices normals

f 10//10 11//11 13//13
f 13//13 11//11 12//12
f 15//15 16//16 14//14
f 14//14 16//16 17//17
f 21//21 22//22 20//20
f 20//20 22//22 23//23
f 25//25 26//26 24//24
f 24//24 26//26 27//27
f 29//29 26//26 28//28
f 28//28 26//26 25//25
f 31//31 32//32 30//30
f 30//30 32//32 33//33
f 35//35 11//11 19//19
f 19//19 11//11 3//3
f 24//24 27//27 15//15
f 15//15 27//27 16//16
f 22//22 21//21 1//1
f 1//1 21//21 36//36
f 37//37 35//35 2//2
f 2//2 35//35 19//19
f 38//38 31//31 6//6
f 6//6 31//31 39//39
f 30//30 40//40 31//31
f 31//31 40//40 39//39
f 10//10 38//38 4//4
f 4//4 38//38 6//6
f 5//5 24//24 9//9
f 9//9 24//24 15//15
f 5//5 25//25 24//24
f 28//28 25//25 8//8
f 8//8 7//7 28//28
f 28//28 7//7 41//41
f 7//7 42//42 41//41
f 41//41 42//42 43//43
f 38//38 10//10 44//44
f 44//44 10//10 13//13
f 30//30 33//33 20//20
f 20//20 33//33 17//17
f 42//42 46//46 43//43
f 36//36 37//37 1//1
f 1//1 37//37 2//2
f 3//3 11//11 4//4
f 4//4 11//11 10//10
f 20//20 23//23 30//30
f 30//30 23//23 40//40
f 14//14 18//18 15//15
f 15//15 18//18 9//9
f 44//44 46//46 32//32
f 32//32 46//46 34//34
f 29//29 12//12 35//35
f 35//35 12//12 11//11
f 13//13 12//12 43//43
f 43//43 12//12 41//41
f 16//16 21//21 17//17
f 17//17 21//21 20//20
f 27//27 26//26 36//36
f 36//36 26//26 37//37
f 26//26 29//29 37//37
f 37//37 29//29 35//35
f 33//33 32//32 45//45
f 45//45 32//32 34//34
f 27//27 36//36 16//16
f 16//16 36//36 21//21
f 13//13 43//43 44//44
f 44//44 43//43 46//46
f 33//33 45//45 17//17
f 17//17 45//45 14//14
f 44//44 32//32 38//38
f 38//38 32//32 31//31
f 12//12 29//29 41//41
f 41//41 29//29 28//28
f 40//40 23//23 22//22
f 40//40 22//22 1//1
f 39//39 40//40 1//1
f 39//39 1//1 2//2
f 39//39 2//2 19//19
f 39//39 19//19 3//3
f 39//39 3//3 4//4
f 6//6 39//39 4//4
f 8//8 25//25 5//5
f 34//34 46//46 42//42
f 18//18 14//14 45//45
f 18//18 45//45 34//34
f 18//18 34//34 42//42
f 42//42 7//7 8//8
f 5//5 9//9 18//18
f 18//18 42//42 8//8
f 5//5 18//18 8//8
# 88 faces, 0 coords texture

# End of File
