####
#
# OBJ File Generated by Meshlab
#
####
# Object ring3.obj
#
# Vertices: 62
# Faces: 120
#
####
vn 0.303505 2.161195 -1.744146
v 0.608230 5.062100 -5.893280
vn 0.030681 2.616657 -0.195006
v 0.676500 7.391220 -0.375390
vn -0.185843 2.553540 1.754955
v -1.335380 5.909510 4.798140
vn -0.280260 0.802397 2.935370
v -1.804940 2.286420 6.891950
vn -0.456002 -0.876523 3.093598
v -1.981530 -1.139540 6.970570
vn 0.443184 0.700588 -3.014020
v -0.587060 1.305990 -8.128290
vn 0.422736 -1.771570 -3.136812
v -1.383250 -2.427380 -7.625010
vn 0.100114 -2.346945 -1.040696
v 0.592150 -5.840430 -4.012530
vn 0.719631 0.612728 -5.863914
v -5.100160 0.858740 -8.809210
vn 0.305415 4.373542 -3.726157
v -6.460360 5.531910 -6.711030
vn -1.237548 3.789832 4.665130
v -20.500500 4.777130 2.205770
vn -0.843778 4.492465 4.133227
v -14.860300 4.730980 3.188970
vn -0.742962 5.608328 2.689778
v -14.822600 5.346960 2.098920
vn -0.367806 5.326937 2.940610
v -20.431400 5.961620 0.918580
vn -0.612802 5.069902 2.981375
v -8.368310 6.331950 3.070290
vn -0.699699 5.831017 1.870607
v -9.993550 6.584510 1.838650
vn -0.202270 6.104702 -0.403944
v -8.470310 7.199400 -1.631100
vn 0.004550 5.767883 -0.651095
v -14.724900 7.125040 -2.878840
vn 0.182094 4.851974 -3.952056
v -13.169000 4.073830 -7.764940
vn 0.266261 4.724639 -3.999348
v -18.258801 4.454140 -7.994030
vn -0.508752 5.232804 -0.814323
v -20.059799 7.495270 -3.668420
vn -0.348698 5.521087 -2.845800
v -8.453260 5.809770 -5.791840
vn -1.368435 6.041401 0.788970
v -23.214800 6.014580 -0.669380
vn -2.408663 2.270469 1.943927
v -24.371901 5.659100 0.823770
vn -0.047904 5.955280 -0.425864
v -6.076580 7.390680 -1.445140
vn -0.950708 1.896252 5.432084
v -7.367330 2.877130 6.235250
vn -1.006959 1.426854 5.571821
v -14.964500 2.378660 4.895790
vn -1.962326 0.722950 4.629967
v -20.851500 2.157540 4.077130
vn -4.267403 -0.367027 3.082973
v -24.323200 2.001300 1.408070
vn -1.294135 -2.128265 5.528118
v -14.716400 -1.414140 4.499030
vn -2.139282 -2.672826 4.825377
v -20.141001 -0.890660 3.303140
vn -4.027031 -2.870228 2.761065
v -23.319201 -0.932830 0.961790
vn -1.194809 -4.459790 3.787654
v -14.206200 -4.153120 2.789810
vn -2.074967 -4.515725 3.442797
v -19.163500 -3.427570 1.480190
vn -0.737036 -4.417027 3.998288
v -4.021090 -4.432220 4.662770
vn -0.976593 -1.581875 5.732539
v -5.789910 -0.985560 6.441660
vn -3.407049 -4.427787 2.420364
v -21.986300 -2.589890 0.082560
vn -3.525971 2.741727 -0.991980
v -24.885500 5.595700 -3.925480
vn -5.202181 -0.910668 -0.978073
v -25.347700 1.380730 -4.009830
vn -2.074718 5.632323 -1.175230
v -23.275600 6.164470 -3.781750
vn 0.376062 2.858366 -5.279025
v -12.219300 2.927130 -8.896270
vn -0.460651 2.175712 -5.246621
v -18.780399 2.741300 -9.613210
vn 0.419107 -0.575262 -5.967525
v -11.725300 0.202990 -9.417780
vn -0.835144 -1.081400 -5.363503
v -18.419701 -0.005200 -9.982410
vn -2.591919 2.040025 -3.865413
v -22.600000 3.885330 -8.251540
vn -1.240217 4.715540 -3.612826
v -22.030600 4.711850 -7.518760
vn -0.317711 -2.229127 1.810299
v -0.903390 -4.564490 5.047060
vn -0.109368 -2.835378 0.329838
v 0.170920 -6.608630 0.672140
vn -0.250750 -5.899180 1.011890
v -2.988340 -6.531510 0.531950
vn -0.762797 -5.790464 0.637719
v -13.882800 -6.070160 -1.247610
vn 0.210741 -5.383039 -2.475504
v -2.517460 -5.975840 -4.118240
vn 0.468728 -3.051012 -5.119744
v -5.796380 -2.569090 -8.097540
vn 0.151499 -3.622785 -4.958330
v -12.097700 -2.721030 -8.180110
vn -0.360855 -5.280371 -2.837342
v -13.124100 -5.139050 -5.599380
vn -1.018045 -3.670373 -4.201931
v -18.135201 -2.481480 -8.739540
vn -0.969941 -5.392679 -2.845827
v -17.433599 -4.006420 -6.431590
vn -1.751358 -5.333108 0.341387
v -18.748199 -5.291150 -2.011340
vn -3.506715 -3.483177 -3.453416
v -21.781900 -1.510740 -7.176000
vn -3.402418 -1.084617 -4.072887
v -22.618500 1.064290 -8.448760
vn -4.648488 -3.153821 -0.532401
v -24.099199 -1.498150 -3.339520
vn -2.698464 -4.828979 -2.428910
v -20.723499 -3.340420 -5.746300
vn -3.583067 -4.580530 -0.065992
v -22.329100 -3.321820 -2.776700
# 62 vertices, 0 vertices normals

f 9//9 10//10 6//6
f 6//6 10//10 1//1
f 12//12 13//13 11//11
f 11//11 13//13 14//14
f 15//15 16//16 12//12
f 12//12 16//16 13//13
f 13//13 16//16 18//18
f 18//18 16//16 17//17
f 19//19 20//20 18//18
f 18//18 20//20 21//21
f 17//17 22//22 18//18
f 18//18 22//22 19//19
f 21//21 14//14 18//18
f 18//18 14//14 13//13
f 23//23 24//24 14//14
f 14//14 24//24 11//11
f 16//16 15//15 17//17
f 17//17 15//15 25//25
f 15//15 3//3 25//25
f 25//25 3//3 2//2
f 15//15 26//26 3//3
f 3//3 26//26 4//4
f 12//12 27//27 15//15
f 15//15 27//27 26//26
f 27//27 12//12 28//28
f 28//28 12//12 11//11
f 17//17 25//25 22//22
f 22//22 25//25 10//10
f 10//10 25//25 1//1
f 1//1 25//25 2//2
f 24//24 29//29 11//11
f 11//11 29//29 28//28
f 30//30 27//27 31//31
f 31//31 27//27 28//28
f 29//29 32//32 28//28
f 28//28 32//32 31//31
f 33//33 30//30 34//34
f 34//34 30//30 31//31
f 30//30 33//33 36//36
f 36//36 33//33 35//35
f 32//32 37//37 31//31
f 31//31 37//37 34//34
f 27//27 30//30 26//26
f 26//26 30//30 36//36
f 26//26 36//36 4//4
f 4//4 36//36 5//5
f 29//29 24//24 39//39
f 39//39 24//24 38//38
f 24//24 23//23 38//38
f 38//38 23//23 40//40
f 19//19 22//22 41//41
f 41//41 22//22 10//10
f 20//20 19//19 42//42
f 42//42 19//19 41//41
f 10//10 9//9 41//41
f 41//41 9//9 43//43
f 42//42 41//41 44//44
f 44//44 41//41 43//43
f 42//42 45//45 20//20
f 20//20 45//45 46//46
f 40//40 46//46 38//38
f 38//38 46//46 45//45
f 47//47 35//35 48//48
f 48//48 35//35 49//49
f 35//35 33//33 49//49
f 49//49 33//33 50//50
f 48//48 49//49 8//8
f 8//8 49//49 51//51
f 47//47 5//5 35//35
f 35//35 5//5 36//36
f 52//52 7//7 51//51
f 51//51 7//7 8//8
f 52//52 9//9 7//7
f 7//7 9//9 6//6
f 53//53 43//43 52//52
f 52//52 43//43 9//9
f 53//53 52//52 54//54
f 54//54 52//52 51//51
f 55//55 53//53 56//56
f 56//56 53//53 54//54
f 49//49 50//50 51//51
f 51//51 50//50 54//54
f 50//50 57//57 54//54
f 54//54 57//57 56//56
f 53//53 55//55 43//43
f 43//43 55//55 44//44
f 59//59 44//44 58//58
f 58//58 44//44 55//55
f 58//58 61//61 60//60
f 60//60 61//61 62//62
f 58//58 55//55 61//61
f 61//61 55//55 56//56
f 58//58 60//60 59//59
f 59//59 60//60 39//39
f 59//59 39//39 45//45
f 45//45 39//39 38//38
f 45//45 42//42 59//59
f 59//59 42//42 44//44
f 33//33 34//34 50//50
f 50//50 34//34 57//57
f 62//62 57//57 37//37
f 37//37 57//57 34//34
f 62//62 61//61 57//57
f 57//57 61//61 56//56
f 62//62 37//37 60//60
f 60//60 37//37 32//32
f 32//32 29//29 60//60
f 60//60 29//29 39//39
f 14//14 21//21 23//23
f 23//23 21//21 40//40
f 40//40 21//21 46//46
f 46//46 21//21 20//20
f 8//8 7//7 6//6
f 8//8 6//6 1//1
f 8//8 1//1 2//2
f 48//48 8//8 2//2
f 47//47 48//48 2//2
f 47//47 2//2 3//3
f 5//5 47//47 3//3
f 4//4 5//5 3//3
# 120 faces, 0 coords texture

# End of File
