####
#
# OBJ File Generated by Meshlab
#
####
# Object ring1.obj
#
# Vertices: 43
# Faces: 82
#
####
vn -1.422771 -1.848311 0.443855
v 22.832500 -6.648380 12.565500
vn -0.891852 -2.545252 -0.183447
v 28.375200 -8.058030 5.219710
vn -0.461313 -0.483658 -3.277061
v 30.795601 0.678060 -5.189760
vn 0.398265 1.459641 -3.167581
v 30.002100 6.293400 -4.736210
vn -1.509050 -3.055014 -1.110381
v 29.756300 -7.944240 -0.392340
vn -2.857565 -2.967529 -4.196850
v 28.825701 -5.953740 -3.287150
vn -0.659080 -0.404315 -0.763414
v 34.748901 -9.201330 -6.680870
vn -1.660005 -0.462242 2.949029
v 21.007401 -1.300010 13.756500
vn -0.589639 2.143469 1.296169
v 27.716801 10.393100 11.610500
vn -0.056765 1.878334 -0.493993
v 33.603901 12.908000 2.027270
vn 0.193884 5.272839 -1.857301
v 26.617100 12.270200 0.404980
vn -0.619093 5.573875 2.223133
v 22.914301 11.333900 6.730390
vn -1.531159 2.638396 5.301749
v 19.635599 5.902280 11.241800
vn -0.519879 -3.178191 0.719426
v 0.412410 -8.010030 1.741320
vn -0.895702 -1.872776 2.354246
v -1.575280 -5.102250 6.303850
vn -0.581472 0.942334 2.505232
v -3.494590 4.187600 7.039890
vn -1.015180 2.647862 1.571304
v -1.615530 8.323880 3.880710
vn -0.572166 3.112062 -0.789699
v -0.086340 9.204780 -1.755150
vn -1.199511 4.896401 2.303591
v 3.248300 9.897010 4.518480
vn -1.354862 2.575484 5.303259
v 0.696240 5.069210 7.680980
vn -1.206914 2.455966 5.478810
v 15.657600 5.824930 10.260900
vn -0.682970 5.009080 2.646922
v 16.675900 11.370900 6.173770
vn -0.683139 -0.276873 2.755555
v -3.263020 -0.722610 7.603530
vn 0.799981 -4.176919 -3.991483
v 5.975970 -6.641210 -6.150430
vn 0.130722 -5.789588 -0.950986
v 5.464580 -8.775720 -1.814960
vn -0.218110 -3.044233 -0.933193
v 1.324640 -7.991830 -3.606080
vn 0.209688 -1.963442 -2.440906
v 1.488410 -5.688100 -7.304030
vn -2.232563 -4.475237 3.136057
v 19.773300 -4.554990 10.492800
vn -1.062305 -5.977718 0.386289
v 23.075001 -6.034420 5.328850
vn -1.646598 -0.501392 5.871479
v 16.362301 -0.276440 11.443700
vn 0.898990 -0.837204 -5.790761
v 5.911670 -0.777070 -9.068200
vn -0.067782 3.090811 -4.695192
v 6.288500 6.361640 -7.830890
vn 0.806978 2.242902 -5.286161
v 20.486900 6.609100 -6.111970
vn 1.032236 -1.665145 -5.773161
v 21.942499 0.568060 -5.757540
vn -1.463072 -0.225376 5.847267
v 0.394540 -0.134740 8.687390
vn -0.401189 -5.670482 1.752874
v 4.527320 -8.343010 3.290620
vn -1.223028 -3.415078 4.356151
v 1.946710 -5.339750 7.614770
vn -0.777137 5.799690 -1.591939
v 5.149400 10.052900 -1.387050
vn -0.070901 1.764322 -2.440966
v 0.679330 5.679910 -7.849160
vn 0.447839 -0.098240 -2.667854
v 0.824960 -0.588330 -9.929030
vn -0.076269 5.264986 -1.734820
v 18.696199 12.299000 -0.633850
vn 0.009045 -4.404218 -4.229830
v 23.712700 -4.867660 -1.782320
vn -0.835498 -5.960410 -1.228824
v 24.325100 -6.466220 1.220650
# 43 vertices, 0 vertices normals

f 7//7 5//5 6//6
f 10//10 11//11 9//9
f 9//9 11//11 12//12
f 6//6 3//3 7//7
f 10//10 4//4 11//11
f 12//12 13//13 9//9
f 9//9 13//13 8//8
f 20//20 21//21 19//19
f 19//19 21//21 22//22
f 25//25 26//26 24//24
f 24//24 26//26 27//27
f 28//28 29//29 1//1
f 1//1 29//29 2//2
f 30//30 28//28 8//8
f 8//8 28//28 1//1
f 32//32 33//33 31//31
f 31//31 33//33 34//34
f 35//35 20//20 23//23
f 23//23 20//20 16//16
f 25//25 36//36 26//26
f 26//26 36//36 14//14
f 37//37 35//35 15//15
f 15//15 35//35 23//23
f 38//38 32//32 18//18
f 18//18 32//32 39//39
f 32//32 31//31 39//39
f 39//39 31//31 40//40
f 38//38 18//18 19//19
f 19//19 18//18 17//17
f 19//19 22//22 38//38
f 38//38 22//22 41//41
f 31//31 34//34 24//24
f 24//24 34//34 42//42
f 36//36 37//37 14//14
f 14//14 37//37 15//15
f 16//16 20//20 17//17
f 17//17 20//20 19//19
f 24//24 27//27 31//31
f 31//31 27//27 40//40
f 41//41 11//11 33//33
f 33//33 11//11 4//4
f 30//30 21//21 35//35
f 35//35 21//21 20//20
f 21//21 13//13 22//22
f 22//22 13//13 12//12
f 43//43 25//25 42//42
f 42//42 25//25 24//24
f 29//29 28//28 36//36
f 36//36 28//28 37//37
f 28//28 30//30 37//37
f 37//37 30//30 35//35
f 3//3 34//34 4//4
f 4//4 34//34 33//33
f 43//43 29//29 25//25
f 25//25 29//29 36//36
f 22//22 12//12 41//41
f 41//41 12//12 11//11
f 34//34 3//3 42//42
f 42//42 3//3 6//6
f 33//33 32//32 41//41
f 41//41 32//32 38//38
f 21//21 30//30 13//13
f 13//13 30//30 8//8
f 5//5 43//43 6//6
f 6//6 43//43 42//42
f 29//29 43//43 2//2
f 2//2 43//43 5//5
f 3//3 4//4 10//10
f 9//9 8//8 1//1
f 7//7 3//3 10//10
f 2//2 5//5 7//7
f 2//2 7//7 10//10
f 2//2 10//10 9//9
f 2//2 9//9 1//1
f 16//16 17//17 18//18
f 16//16 18//18 39//39
f 16//16 39//39 40//40
f 16//16 40//40 27//27
f 16//16 27//27 26//26
f 16//16 26//26 14//14
f 16//16 14//14 15//15
f 16//16 15//15 23//23
# 82 faces, 0 coords texture

# End of File
