####
#
# OBJ File Generated by Meshlab
#
####
# Object thumb1.obj
#
# Vertices: 35
# Faces: 66
#
####
vn -0.019419 1.227451 1.581174
v -22.907600 13.054200 7.328730
vn 0.148763 2.773017 3.078908
v -13.227400 11.263400 8.158660
vn 0.594501 1.768820 1.683917
v -5.362610 16.826099 1.815700
vn 0.446591 -1.750381 5.713349
v -23.143600 -7.360030 13.808500
vn 0.968690 -4.579025 3.311660
v -24.402201 -17.556499 7.571140
vn 1.550242 -4.488377 3.682957
v -9.729100 -12.457700 7.288680
vn 1.148288 -1.677077 5.582440
v -11.526100 -4.209070 13.345800
vn 2.836831 0.523860 1.272254
v 1.245310 16.252199 -0.803860
vn 1.119341 4.040928 4.555961
v -5.004690 11.121500 7.681560
vn 0.278530 -0.028318 0.064689
v 2.589420 16.647699 -6.418040
vn -0.394937 -1.589539 1.603684
v -48.542099 -15.345100 7.777640
vn -0.303972 -4.389503 3.595053
v -35.884102 -17.711800 8.599550
vn 0.004067 -3.891500 -0.001964
v -38.364899 -21.843300 -4.058860
vn 1.066231 -5.640790 -0.189010
v -24.513300 -21.017700 -3.710010
vn 1.914670 -5.598396 0.502632
v -8.262780 -15.705800 -1.243940
vn 0.902974 -4.966954 -3.312315
v -28.199900 -16.853901 -15.692400
vn 2.126255 -4.973215 -2.762131
v -8.975590 -13.428500 -11.198600
vn 0.114981 -1.597730 -0.980606
v -43.969501 -17.113800 -17.118000
vn 0.724995 -0.850789 -1.857450
v -5.225600 0.614690 -20.366800
vn -0.071185 0.878675 4.321276
v -30.606701 4.199310 13.173800
vn -0.000441 -1.373916 5.745344
v -37.282700 -6.721230 14.697800
vn 0.024784 1.692243 5.521404
v -19.106800 4.077420 14.344000
vn 0.284281 -0.342088 3.171171
v -3.329580 -0.659830 12.541800
vn -0.014788 2.070416 2.581146
v -3.629250 7.950000 10.991700
vn 0.548240 -0.703282 -2.005167
v -20.136600 2.679820 -25.443701
vn 0.485861 -1.752772 -2.322886
v -31.709499 -8.006090 -24.618200
vn 1.714200 -3.253977 -4.812465
v -15.394900 -7.894700 -20.438400
vn 0.859552 1.996651 5.290627
v -9.849810 5.851720 12.980100
vn 0.383630 -2.001417 2.294921
v -1.482890 -8.602390 8.970090
vn 0.933740 -2.822184 0.638702
v 0.499940 -12.157800 1.622820
vn 1.157582 -2.377016 -0.843769
v 1.256950 -10.677400 -6.096530
vn 0.057298 -0.457508 2.572715
v -45.880001 -2.848860 15.577900
vn 0.132421 0.225125 1.648299
v -39.737000 8.114510 12.868700
vn 0.519375 2.335443 1.844073
v -0.639140 12.085600 5.486020
vn 1.331686 -2.067869 -2.248525
v -2.610390 -6.259150 -15.399100
# 35 vertices, 0 vertices normals

f 4//4 5//5 7//7
f 7//7 5//5 6//6
f 8//8 3//3 9//9
f 9//9 3//3 2//2
f 12//12 13//13 5//5
f 5//5 13//13 14//14
f 5//5 14//14 6//6
f 6//6 14//14 15//15
f 16//16 17//17 14//14
f 14//14 17//17 15//15
f 14//14 13//13 16//16
f 16//16 13//13 18//18
f 21//21 4//4 20//20
f 20//20 4//4 22//22
f 21//21 12//12 4//4
f 4//4 12//12 5//5
f 18//18 26//26 16//16
f 26//26 25//25 27//27
f 4//4 7//7 22//22
f 22//22 7//7 28//28
f 26//26 27//27 16//16
f 16//16 27//27 17//17
f 32//32 21//21 33//33
f 33//33 21//21 20//20
f 35//35 27//27 19//19
f 19//19 27//27 25//25
f 31//31 17//17 35//35
f 35//35 17//17 27//27
f 30//30 15//15 31//31
f 31//31 15//15 17//17
f 30//30 29//29 15//15
f 15//15 29//29 6//6
f 9//9 2//2 28//28
f 28//28 2//2 22//22
f 2//2 1//1 22//22
f 22//22 1//1 20//20
f 32//32 11//11 21//21
f 21//21 11//11 12//12
f 12//12 11//11 13//13
f 29//29 23//23 6//6
f 6//6 23//23 7//7
f 23//23 24//24 7//7
f 7//7 24//24 28//28
f 24//24 34//34 28//28
f 28//28 34//34 9//9
f 9//9 34//34 8//8
f 8//8 34//34 10//10
f 33//33 20//20 1//1
f 18//18 13//13 11//11
f 1//1 2//2 3//3
f 3//3 8//8 10//10
f 34//34 24//24 23//23
f 34//34 23//23 29//29
f 10//10 34//34 29//29
f 10//10 29//29 30//30
f 10//10 30//30 31//31
f 10//10 31//31 35//35
f 10//10 35//35 19//19
f 10//10 19//19 25//25
f 1//1 3//3 10//10
f 33//33 1//1 10//10
f 33//33 10//10 25//25
f 33//33 25//25 26//26
f 33//33 26//26 18//18
f 33//33 18//18 11//11
f 33//33 11//11 32//32
# 66 faces, 0 coords texture

# End of File
