####
#
# OBJ File Generated by Meshlab
#
####
# Object thumb3.obj
#
# Vertices: 62
# Faces: 120
#
####
vn 1.016711 -2.229205 -1.407466
v 1.729490 -10.159200 -5.863570
vn 0.644758 -2.578265 0.428595
v -0.087150 -11.729700 1.177060
vn 0.090103 -2.334176 2.076771
v -0.669770 -8.686980 7.302550
vn -0.746096 -0.699300 2.754679
v -2.351070 -2.938180 9.873060
vn -1.222334 1.137599 2.813904
v -2.463620 2.033580 9.671290
vn 0.894709 -0.998448 -2.681797
v 1.718160 -4.421010 -9.251930
vn 0.547681 0.482077 -2.915842
v 1.523700 1.197060 -10.060000
vn -0.162155 2.448767 -1.908833
v 0.170180 6.778260 -6.805000
vn 1.802900 -1.479238 -5.526753
v 9.269820 -1.021950 -8.158740
vn 2.498208 -4.278183 -3.424970
v 17.480700 -3.817450 -2.514940
vn 0.428118 -1.975744 5.232668
v 25.686100 -1.286020 14.542100
vn -0.387327 -3.449127 4.802349
v 18.953600 -1.808400 13.648800
vn -0.187151 -5.466314 2.933334
v 20.410700 -3.396130 11.544400
vn -0.068643 -4.683141 3.490276
v 26.371201 -3.372910 12.798400
vn 0.544459 -4.644972 3.767215
v 14.806700 -4.266310 11.012700
vn 1.137604 -5.672278 2.362236
v 16.898899 -4.387970 9.578280
vn 3.387213 -4.358129 0.476962
v 17.028299 -5.365500 4.366360
vn 0.324682 -5.966598 -0.264013
v 22.353800 -5.212430 5.558380
vn 2.470968 -5.328124 -2.102838
v 19.030300 -3.828250 -0.193420
vn 1.149965 -5.239535 -3.206249
v 22.851999 -2.618790 -0.213010
vn 0.327067 -6.004565 -0.286513
v 27.765301 -5.030570 6.549510
vn 1.392154 -3.847388 2.665038
v 30.233299 -4.230970 11.837500
vn 2.731556 -4.703668 0.060206
v 32.372200 -4.398250 7.539380
vn 2.929448 -0.805824 4.174518
v 31.022900 -1.223140 13.201200
vn 2.823496 -4.396271 0.491751
v 16.152399 -7.202260 3.982420
vn -0.765707 -1.743995 5.572450
v 8.005910 -1.648920 12.754800
vn -0.587798 -0.559809 5.694349
v 16.328899 1.059470 14.593300
vn 0.632214 1.419978 5.318834
v 24.299200 2.416420 14.899300
vn 2.949215 2.147534 3.772614
v 30.511600 2.123180 12.989200
vn -0.573328 2.690758 5.068467
v 14.704400 5.410650 13.535000
vn 0.737370 3.971142 4.204453
v 22.350901 6.132430 12.825300
vn 2.451458 4.672764 2.617802
v 27.826300 5.913770 10.401500
vn -0.358975 4.989060 2.930059
v 14.113500 8.978490 9.979710
vn 1.020966 5.455615 2.385280
v 21.507999 8.398110 9.477680
vn -1.656237 4.969794 2.827638
v 1.247140 7.399290 6.782740
vn -1.672815 1.940688 5.121889
v 3.245990 3.111530 11.750800
vn 2.095345 5.600413 1.690302
v 25.763399 7.220600 8.624340
vn 4.426316 -1.241098 0.610636
v 34.463402 -2.155380 7.873030
vn 4.813618 2.184795 0.675056
v 33.823002 1.703420 7.557240
vn 1.793521 -3.460963 -4.572148
v 22.038000 -0.811590 -3.227020
vn 1.160446 -4.272071 -3.654376
v 28.193501 -2.890230 0.424610
vn 2.361934 -2.090534 -4.993989
v 27.970699 -0.146790 -1.466690
vn 2.008339 -0.593483 -5.485682
v 19.867599 2.175720 -5.274470
vn 2.736605 0.944845 -4.767348
v 27.290800 2.697480 -2.377790
vn 4.134706 -1.041234 -2.987210
v 32.744099 -0.954960 1.828440
vn 2.496790 -4.242534 -2.424608
v 31.482300 -3.548750 2.929210
vn -0.913620 2.519983 1.340794
v -2.938250 6.617870 5.404450
vn -0.525199 2.811799 -0.124658
v -2.220410 8.146480 -1.073660
vn -1.082984 6.004416 -0.086535
v 1.696650 8.927170 0.032620
vn 0.060558 5.904263 0.104173
v 13.988000 10.661500 3.342700
vn -0.170370 4.746936 -3.144027
v 4.591200 8.118890 -5.602430
vn 0.974474 1.825041 -5.446403
v 7.639400 3.590660 -8.603690
vn 1.689587 2.676820 -4.810537
v 18.241100 5.779880 -5.214570
vn 0.950887 5.076098 -2.765847
v 15.883500 9.161750 -2.418450
vn 2.540142 3.829175 -3.645123
v 25.584101 5.958770 -1.348650
vn 2.100993 5.362204 -2.080277
v 23.845501 7.771820 0.575880
vn 1.598260 5.814460 0.139957
v 22.406000 9.180960 5.154990
vn 3.507750 4.371194 -1.958379
v 29.589300 5.316410 2.175800
vn 4.140971 1.948158 -2.869200
v 31.918900 2.381970 1.324780
vn 3.707960 4.572062 0.392693
v 30.555700 5.329880 6.535870
vn 2.754206 5.452052 -1.225947
v 27.070400 6.789600 2.727630
vn 2.677348 5.598484 0.167480
v 27.109400 7.115760 5.833090
# 62 vertices, 0 vertices normals

f 10//10 1//1 9//9
f 9//9 1//1 6//6
f 12//12 13//13 11//11
f 11//11 13//13 14//14
f 15//15 16//16 12//12
f 12//12 16//16 13//13
f 17//17 18//18 16//16
f 16//16 18//18 13//13
f 17//17 19//19 18//18
f 18//18 19//19 20//20
f 21//21 14//14 18//18
f 18//18 14//14 13//13
f 14//14 21//21 22//22
f 22//22 21//21 23//23
f 22//22 24//24 14//14
f 14//14 24//24 11//11
f 17//17 16//16 25//25
f 25//25 16//16 15//15
f 15//15 3//3 25//25
f 25//25 3//3 2//2
f 15//15 26//26 3//3
f 3//3 26//26 4//4
f 12//12 27//27 15//15
f 15//15 27//27 26//26
f 27//27 12//12 28//28
f 28//28 12//12 11//11
f 17//17 25//25 19//19
f 19//19 25//25 10//10
f 10//10 25//25 1//1
f 1//1 25//25 2//2
f 24//24 29//29 11//11
f 11//11 29//29 28//28
f 30//30 27//27 31//31
f 31//31 27//27 28//28
f 29//29 32//32 28//28
f 28//28 32//32 31//31
f 33//33 30//30 34//34
f 34//34 30//30 31//31
f 30//30 33//33 36//36
f 36//36 33//33 35//35
f 32//32 37//37 31//31
f 31//31 37//37 34//34
f 27//27 30//30 26//26
f 26//26 30//30 36//36
f 26//26 36//36 4//4
f 4//4 36//36 5//5
f 29//29 24//24 39//39
f 39//39 24//24 38//38
f 24//24 22//22 38//38
f 38//38 22//22 23//23
f 20//20 19//19 40//40
f 40//40 19//19 10//10
f 41//41 20//20 42//42
f 42//42 20//20 40//40
f 40//40 10//10 43//43
f 43//43 10//10 9//9
f 42//42 40//40 44//44
f 44//44 40//40 43//43
f 42//42 45//45 41//41
f 41//41 45//45 46//46
f 23//23 46//46 38//38
f 38//38 46//46 45//45
f 21//21 18//18 41//41
f 41//41 18//18 20//20
f 23//23 21//21 46//46
f 46//46 21//21 41//41
f 35//35 49//49 47//47
f 47//47 49//49 48//48
f 33//33 50//50 35//35
f 35//35 50//50 49//49
f 48//48 49//49 8//8
f 8//8 49//49 51//51
f 47//47 5//5 35//35
f 35//35 5//5 36//36
f 52//52 7//7 51//51
f 51//51 7//7 8//8
f 7//7 52//52 6//6
f 6//6 52//52 9//9
f 52//52 53//53 9//9
f 9//9 53//53 43//43
f 53//53 52//52 54//54
f 54//54 52//52 51//51
f 55//55 53//53 56//56
f 56//56 53//53 54//54
f 49//49 50//50 51//51
f 51//51 50//50 54//54
f 50//50 57//57 54//54
f 54//54 57//57 56//56
f 53//53 55//55 43//43
f 43//43 55//55 44//44
f 59//59 44//44 58//58
f 58//58 44//44 55//55
f 60//60 58//58 62//62
f 62//62 58//58 61//61
f 58//58 55//55 61//61
f 61//61 55//55 56//56
f 58//58 60//60 59//59
f 59//59 60//60 39//39
f 59//59 39//39 45//45
f 45//45 39//39 38//38
f 45//45 42//42 59//59
f 59//59 42//42 44//44
f 50//50 33//33 57//57
f 57//57 33//33 34//34
f 62//62 57//57 37//37
f 37//37 57//57 34//34
f 62//62 61//61 57//57
f 57//57 61//61 56//56
f 60//60 62//62 32//32
f 32//32 62//62 37//37
f 32//32 29//29 60//60
f 60//60 29//29 39//39
f 48//48 8//8 7//7
f 48//48 7//7 6//6
f 4//4 5//5 47//47
f 4//4 47//47 48//48
f 4//4 48//48 6//6
f 3//3 4//4 6//6
f 3//3 6//6 1//1
f 2//2 3//3 1//1
# 120 faces, 0 coords texture

# End of File
